<svg width="2385" height="1432" viewBox="0 0 2385 1432" fill="none" xmlns="http://www.w3.org/2000/svg">
<g clip-path="url(#clip0_210_5)">
<path d="M2305.32 630.526L2006.02 594.174L1876.9 931.567L1593.98 897.205L1946.73 219.794L1680.19 187.421L935.818 817.266L462.298 759.754C303.488 762.88 214.453 773.985 55.6754 856.432C12.5097 971.941 14.719 1039.92 18.6581 1161.13L18.6601 1161.19L2208.57 1427.17C2287.25 1117.5 2321.41 943.778 2305.32 630.526Z" fill="#0044FF"/>
<path d="M18.6601 1161.19L2208.57 1427.17C2287.25 1117.5 2321.41 943.778 2305.32 630.526L2006.02 594.174L1876.9 931.567L1593.98 897.205L1946.73 219.794L1680.19 187.421L935.818 817.266L462.298 759.754C303.488 762.88 214.453 773.985 55.6754 856.432C12.5097 971.941 14.719 1039.92 18.6581 1161.13M18.6601 1161.19L18.6581 1161.13M18.6601 1161.19C18.6594 1161.17 18.6588 1161.15 18.6581 1161.13" stroke="#0044FF"/>
</g>
<defs>
<clipPath id="clip0_210_5">
<rect width="2383.83" height="1430.93" fill="white" transform="translate(0.7854 0.535156)"/>
</clipPath>
</defs>
</svg>
